{"title":"The Hurt Locker ~ DvdRip ~ [IYYAPPAN]","uid":5458652,"size":1463642377,"categoryP":"video","categoryS":"movies","magnet":"?xt=urn:btih:2ac19ef8428bba8b350f446c56b8c4a3cd3afcd9&amp;dn=The+Hurt+Locker+%7E+DvdRip+%7E+%5BIYYAPPAN%5D&amp;tr=udp%3A%2F%2Ftracker.openbittorrent.com%3A80&amp;tr=udp%3A%2F%2Fopen.demonii.com%3A1337&amp;tr=udp%3A%2F%2Ftracker.coppersurfer.tk%3A6969&amp;tr=udp%3A%2F%2Fexodus.desync.com%3A6969","seeders":0,"leechers":0,"uploader":"svdcekm","files":2,"time":1269403035,"description":"The Hurt Locker ~ DvdRip ~ [IYYAPPAN]\n\nGUYS AFTER DOWNLOAD COMPLETES SEED AS MUCH AS YOU CAN......\n\nDONT FORGET TO SAY THANKS IF U LIKE MY POST........\n\nSCREENSHOTS:-\n &lt;a href=&quot;\nhttp://bayimg.com/nAlILaACh&quot; rel=&quot;nofollow&quot; target=&quot;_NEW&quot;&gt;\nhttp://bayimg.com/nAlILaACh&lt;/a&gt;\n &lt;a href=&quot;\nhttp://bayimg.com/NALiNAaCH&quot; rel=&quot;nofollow&quot; target=&quot;_NEW&quot;&gt;\nhttp://bayimg.com/NALiNAaCH&lt;/a&gt;\n &lt;a href=&quot;\nhttp://bayimg.com/nAliOaaCH&quot; rel=&quot;nofollow&quot; target=&quot;_NEW&quot;&gt;\nhttp://bayimg.com/nAliOaaCH&lt;/a&gt;\n &lt;a href=&quot;\nhttp://bayimg.com/nalIpaaCH&quot; rel=&quot;nofollow&quot; target=&quot;_NEW&quot;&gt;\nhttp://bayimg.com/nalIpaaCH&lt;/a&gt;\n &lt;a href=&quot;\nhttp://bayimg.com/oaLiBaacH&quot; rel=&quot;nofollow&quot; target=&quot;_NEW&quot;&gt;\nhttp://bayimg.com/oaLiBaacH&lt;/a&gt;\n &lt;a href=&quot;\nhttp://bayimg.com/oaLIcAACH&quot; rel=&quot;nofollow&quot; target=&quot;_NEW&quot;&gt;\nhttp://bayimg.com/oaLIcAACH&lt;/a&gt;\n\nFormat                           : AVI\nFormat/Info                      : Audio Video Interleave\nFile size                        : 1.36 GiB\nDuration                         : 2h 5mn\nOverall bit rate                 : 1 556 Kbps\nWriting application              : VirtualDubMod 1.5.10.2 (build 2542/release)\nWriting library                  : VirtualDubMod build 2542/release\nOriginal source form             : IYYAPPAN\n\nVideo\nID                               : 0\nFormat                           : MPEG-4 Visual\nFormat settings, BVOP            : Yes\nFormat settings, QPel            : No\nFormat settings, GMC             : No warppoints\nFormat settings, Matrix          : Default (H.263)\nCodec ID                         : XVID\nCodec ID/Hint                    : XviD\nDuration                         : 2h 5mn\nBit rate                         : 1 421 Kbps\nWidth                            : 624 pixels\nHeight                           : 336 pixels\nDisplay aspect ratio             : 1.857\nFrame rate                       : 25.000 fps\nResolution                       : 24 bits\nColorimetry                      : 4:2:0\nScan type                        : Progressive\nBits/(Pixel*Frame)               : 0.271\nStream size                      : 1.25 GiB (91%)\n\n\nAudio\nID                               : 1\nFormat                           : MPEG Audio\nFormat version                   : Version 1\nFormat profile                   : Layer 3\nCodec ID                         : 55\nCodec ID/Hint                    : MP3\nDuration                         : 2h 5mn\nBit rate mode                    : Variable\nBit rate                         : 122 Kbps\nNominal bit rate                 : 128 Kbps\nChannel(s)                       : 2 channels\nSampling rate                    : 48.0 KHz\nResolution                       : 16 bits\nStream size                      : 109 MiB (8%)\nAlignment                        : Aligned on interleaves\nInterleave, duration             : 24 ms (0.60 video frame)\nInterleave, preload duration     : 513 ms\nWriting library                  : LAME3.99a\nEncoding settings                : -m j -V 4 -q 2 -lowpass 17 --abr 128\n \n\n","torrent":{"xt":"urn:btih:2ac19ef8428bba8b350f446c56b8c4a3cd3afcd9","amp;dn":"The+Hurt+Locker+%7E+DvdRip+%7E+%5BIYYAPPAN%5D","amp;tr":["udp%3A%2F%2Ftracker.openbittorrent.com%3A80","udp%3A%2F%2Fopen.demonii.com%3A1337","udp%3A%2F%2Ftracker.coppersurfer.tk%3A6969","udp%3A%2F%2Fexodus.desync.com%3A6969"],"infoHash":"2ac19ef8428bba8b350f446c56b8c4a3cd3afcd9","infoHashBuffer":{"type":"Buffer","data":[42,193,158,248,66,139,186,139,53,15,68,108,86,184,196,163,205,58,252,217]},"announce":[],"urlList":[]}}